<?xml version="1.0" encoding="utf-8"?>
<svg version="1.1" xmlns:xlink="http://www.w3.org/1999/xlink" width="31px" height="34px" xmlns="http://www.w3.org/2000/svg">
  <g transform="matrix(1 0 0 1 -13 -12 )">
    <path d="M 21.5919471153846 25.7940848214286  C 22.1135817307692 25.1806175595238  22.3743990384615 24.4122023809524  22.3743990384615 23.4888392857143  C 22.3743990384615 22.7678571428571  22.3402443910256 22.0911458333333  22.2719350961538 21.4587053571429  C 22.2036258012821 20.8262648809524  22.0732171474359 20.190662202381  21.8807091346154 19.5518973214286  C 21.6882011217949 18.9131324404762  21.4429086538462 18.3692336309524  21.1448317307692 17.9202008928571  C 20.8467548076923 17.4711681547619  20.4493189102564 17.1043526785714  19.9525240384615 16.8197544642857  C 19.4557291666667 16.53515625  18.890625 16.3928571428571  18.2572115384615 16.3928571428571  C 18.1826923076923 16.4434523809524  17.9746594551282 16.5731026785714  17.6331129807692 16.7818080357143  C 17.2915665064103 16.9905133928571  17.0276442307692 17.1454613095238  16.8413461538462 17.2466517857143  C 16.6550480769231 17.3478422619048  16.4035456730769 17.4743303571429  16.0868389423077 17.6261160714286  C 15.7701322115385 17.7779017857143  15.4658453525641 17.8854166666667  15.1739783653846 17.9486607142857  C 14.8821113782051 18.0119047619048  14.5933493589744 18.0435267857143  14.3076923076923 18.0435267857143  C 14.0220352564103 18.0435267857143  13.7332732371795 18.0119047619048  13.44140625 17.9486607142857  C 13.1495392628205 17.8854166666667  12.8452524038462 17.7779017857143  12.5285456730769 17.6261160714286  C 12.2118389423077 17.4743303571429  11.9603365384615 17.3478422619048  11.7740384615385 17.2466517857143  C 11.5877403846154 17.1454613095238  11.3238181089744 16.9905133928571  10.9822716346154 16.7818080357143  C 10.6407251602564 16.5731026785714  10.4326923076923 16.4434523809524  10.3581730769231 16.3928571428571  C 9.72475961538462 16.3928571428571  9.15965544871795 16.53515625  8.66286057692308 16.8197544642857  C 8.16606570512821 17.1043526785714  7.76862980769231 17.4711681547619  7.47055288461539 17.9202008928571  C 7.17247596153846 18.3692336309524  6.92718349358974 18.9131324404762  6.73467548076923 19.5518973214286  C 6.54216746794872 20.190662202381  6.41175881410256 20.8262648809524  6.34344951923077 21.4587053571429  C 6.27514022435897 22.0911458333333  6.24098557692308 22.7678571428571  6.24098557692308 23.4888392857143  C 6.24098557692308 24.4122023809524  6.50180288461539 25.1806175595238  7.0234375 25.7940848214286  C 7.54507211538462 26.4075520833333  8.18469551282051 26.7142857142857  8.94230769230769 26.7142857142857  L 19.6730769230769 26.7142857142857  C 20.4306891025641 26.7142857142857  21.0703125 26.4075520833333  21.5919471153846 25.7940848214286  Z M 17.7262620192308 15.6908482142857  C 18.6763822115385 14.7295386904762  19.1514423076923 13.5721726190476  19.1514423076923 12.21875  C 19.1514423076923 10.8526785714286  18.6763822115385 9.68898809523809  17.7262620192308 8.72767857142857  C 16.7761418269231 7.76636904761904  15.6366185897436 7.28571428571429  14.3076923076923 7.28571428571429  C 12.978766025641 7.28571428571429  11.8392427884615 7.76636904761904  10.8891225961538 8.72767857142857  C 9.93900240384616 9.68898809523809  9.46394230769231 10.8526785714286  9.46394230769231 12.21875  C 9.46394230769231 13.5721726190476  9.93900240384616 14.7295386904762  10.8891225961538 15.6908482142857  C 11.8392427884615 16.6521577380952  12.978766025641 17.1328125  14.3076923076923 17.1328125  C 15.6366185897436 17.1328125  16.7761418269231 16.6521577380952  17.7262620192308 15.6908482142857  Z M 30.8323317307692 22.0279017857143  C 30.9441105769231 22.1417410714286  31 22.2872023809524  31 22.4642857142857  L 31 26.1071428571429  C 31 26.2842261904762  30.9441105769231 26.4296875  30.8323317307692 26.5435267857143  C 30.7205528846154 26.6573660714286  30.5777243589744 26.7142857142857  30.4038461538462 26.7142857142857  L 28.6153846153846 26.7142857142857  L 28.6153846153846 30.9642857142857  C 28.6153846153846 31.7991071428571  28.3235176282051 32.5137648809524  27.7397836538462 33.1082589285714  C 27.1560496794872 33.7027529761905  26.4543269230769 34  25.6346153846154 34  L 2.98076923076923 34  C 2.16105769230769 34  1.45933493589744 33.7027529761905  0.875600961538462 33.1082589285714  C 0.291866987179487 32.5137648809524  0 31.7991071428571  0 30.9642857142857  L 0 3.03571428571429  C 0 2.20089285714286  0.291866987179487 1.48623511904762  0.875600961538462 0.891741071428573  C 1.45933493589744 0.297247023809524  2.16105769230769 0  2.98076923076923 0  L 25.6346153846154 0  C 26.4543269230769 0  27.1560496794872 0.297247023809524  27.7397836538462 0.891741071428573  C 28.3235176282051 1.48623511904762  28.6153846153846 2.20089285714286  28.6153846153846 3.03571428571429  L 28.6153846153846 7.28571428571429  L 30.4038461538462 7.28571428571429  C 30.5777243589744 7.28571428571429  30.7205528846154 7.34263392857143  30.8323317307692 7.45647321428571  C 30.9441105769231 7.5703125  31 7.71577380952381  31 7.89285714285714  L 31 11.5357142857143  C 31 11.7127976190476  30.9441105769231 11.8582589285714  30.8323317307692 11.9720982142857  C 30.7205528846154 12.0859375  30.5777243589744 12.1428571428571  30.4038461538462 12.1428571428571  L 28.6153846153846 12.1428571428571  L 28.6153846153846 14.5714285714286  L 30.4038461538462 14.5714285714286  C 30.5777243589744 14.5714285714286  30.7205528846154 14.6283482142857  30.8323317307692 14.7421875  C 30.9441105769231 14.8560267857143  31 15.0014880952381  31 15.1785714285714  L 31 18.8214285714286  C 31 18.9985119047619  30.9441105769231 19.1439732142857  30.8323317307692 19.2578125  C 30.7205528846154 19.3716517857143  30.5777243589744 19.4285714285714  30.4038461538462 19.4285714285714  L 28.6153846153846 19.4285714285714  L 28.6153846153846 21.8571428571429  L 30.4038461538462 21.8571428571429  C 30.5777243589744 21.8571428571429  30.7205528846154 21.9140625  30.8323317307692 22.0279017857143  Z " fill-rule="nonzero" fill="#409eff" stroke="none" transform="matrix(1 0 0 1 13 12 )" />
  </g>
</svg>