<?xml version="1.0" encoding="utf-8"?>
<svg version="1.1" xmlns:xlink="http://www.w3.org/1999/xlink" width="30px" height="30px" xmlns="http://www.w3.org/2000/svg">
  <g transform="matrix(1 0 0 1 -1277 -11 )">
    <path d="M 7.470703125 2.01171875  C 9.76888020833333 0.670572916666664  12.2786458333333 0  15 0  C 17.7213541666667 0  20.2311197916667 0.670572916666664  22.529296875 2.01171875  C 24.8274739583333 3.35286458333333  26.6471354166667 5.17252604166667  27.98828125 7.470703125  C 29.3294270833333 9.76888020833333  30 12.2786458333333  30 15  C 30 17.7213541666667  29.3294270833333 20.2311197916667  27.98828125 22.529296875  C 26.6471354166667 24.8274739583333  24.8274739583333 26.6471354166667  22.529296875 27.98828125  C 20.2311197916667 29.3294270833333  17.7213541666667 30  15 30  C 12.2786458333333 30  9.76888020833333 29.3294270833333  7.470703125 27.98828125  C 5.17252604166667 26.6471354166667  3.35286458333333 24.8274739583333  2.01171875 22.529296875  C 0.670572916666667 20.2311197916667  0 17.7213541666667  0 15  C 0 12.2786458333333  0.670572916666667 9.76888020833333  2.01171875 7.470703125  C 3.35286458333333 5.17252604166667  5.17252604166667 3.35286458333333  7.470703125 2.01171875  Z M 21.19140625 9.94140625  C 20.9700520833333 9.87630208333333  20.6901041666667 9.95442708333333  20.3515625 10.17578125  C 20.3255208333333 10.1888020833333  20.263671875 10.2506510416667  20.166015625 10.361328125  C 20.068359375 10.4720052083333  19.98046875 10.5338541666667  19.90234375 10.546875  C 19.9283854166667 10.546875  19.9576822916667 10.5143229166667  19.990234375 10.44921875  C 20.0227864583333 10.3841145833333  20.0553385416667 10.3125  20.087890625 10.234375  C 20.1204427083333 10.15625  20.1432291666667 10.1106770833333  20.15625 10.09765625  C 20.234375 10.0065104166667  20.3776041666667 9.90885416666666  20.5859375 9.8046875  C 20.7682291666667 9.7265625  21.1067708333333 9.6484375  21.6015625 9.5703125  C 22.0442708333333 9.46614583333333  22.3763020833333 9.53776041666667  22.59765625 9.78515625  C 22.5716145833333 9.75911458333333  22.6334635416667 9.67447916666666  22.783203125 9.53125  C 22.9329427083333 9.38802083333333  23.02734375 9.30989583333333  23.06640625 9.296875  C 23.10546875 9.27083333333333  23.203125 9.24153645833333  23.359375 9.208984375  C 23.515625 9.17643229166666  23.61328125 9.12760416666667  23.65234375 9.0625  L 23.69140625 8.6328125  C 23.53515625 8.64583333333333  23.4212239583333 8.60026041666667  23.349609375 8.49609375  C 23.2779947916667 8.39192708333333  23.2356770833333 8.25520833333333  23.22265625 8.0859375  C 23.22265625 8.11197916666666  23.18359375 8.1640625  23.10546875 8.2421875  C 23.10546875 8.15104166666666  23.076171875 8.09895833333333  23.017578125 8.0859375  C 22.958984375 8.07291666666667  22.8841145833333 8.07942708333333  22.79296875 8.10546875  C 22.7018229166667 8.13151041666667  22.6432291666667 8.13802083333333  22.6171875 8.125  C 22.4869791666667 8.0859375  22.3893229166667 8.037109375  22.32421875 7.978515625  C 22.2591145833333 7.919921875  22.20703125 7.8125  22.16796875 7.65625  C 22.12890625 7.5  22.1028645833333 7.40234375  22.08984375 7.36328125  C 22.0638020833333 7.29817708333333  22.001953125 7.2265625  21.904296875 7.1484375  C 21.806640625 7.0703125  21.7447916666667 7.00520833333333  21.71875 6.953125  C 21.7057291666667 6.92708333333333  21.689453125 6.89127604166667  21.669921875 6.845703125  C 21.650390625 6.80013020833333  21.630859375 6.7578125  21.611328125 6.71875  C 21.591796875 6.6796875  21.5657552083333 6.64388020833333  21.533203125 6.611328125  C 21.5006510416667 6.57877604166667  21.46484375 6.5625  21.42578125 6.5625  C 21.38671875 6.5625  21.3411458333333 6.59505208333333  21.2890625 6.66015625  C 21.2369791666667 6.72526041666667  21.1881510416667 6.79036458333333  21.142578125 6.85546875  C 21.0970052083333 6.92057291666667  21.0677083333333 6.953125  21.0546875 6.953125  C 21.015625 6.92708333333333  20.9765625 6.91731770833333  20.9375 6.923828125  C 20.8984375 6.93033854166667  20.869140625 6.93684895833333  20.849609375 6.943359375  C 20.830078125 6.94986979166667  20.80078125 6.96940104166666  20.76171875 7.001953125  C 20.72265625 7.03450520833333  20.6901041666667 7.05729166666666  20.6640625 7.0703125  C 20.625 7.09635416666667  20.5696614583333 7.11588541666666  20.498046875 7.12890625  C 20.4264322916667 7.14192708333333  20.37109375 7.15494791666667  20.33203125 7.16796875  C 20.52734375 7.10286458333333  20.5208333333333 7.03125  20.3125 6.953125  C 20.1822916666667 6.90104166666667  20.078125 6.88151041666666  20 6.89453125  C 20.1171875 6.84244791666667  20.166015625 6.76432291666666  20.146484375 6.66015625  C 20.126953125 6.55598958333333  20.0716145833333 6.46484375  19.98046875 6.38671875  L 20.078125 6.38671875  C 20.0651041666667 6.33463541666667  20.009765625 6.279296875  19.912109375 6.220703125  C 19.814453125 6.162109375  19.7005208333333 6.10677083333333  19.5703125 6.0546875  C 19.4401041666667 6.00260416666666  19.35546875 5.96354166666667  19.31640625 5.9375  C 19.2122395833333 5.87239583333333  18.9908854166667 5.810546875  18.65234375 5.751953125  C 18.3138020833333 5.693359375  18.0989583333333 5.69010416666667  18.0078125 5.7421875  C 17.9427083333333 5.8203125  17.9134114583333 5.888671875  17.919921875 5.947265625  C 17.9264322916667 6.005859375  17.9524739583333 6.09700520833333  17.998046875 6.220703125  C 18.0436197916667 6.34440104166667  18.06640625 6.42578125  18.06640625 6.46484375  C 18.0794270833333 6.54296875  18.0436197916667 6.62760416666667  17.958984375 6.71875  C 17.8743489583333 6.80989583333333  17.83203125 6.88802083333333  17.83203125 6.953125  C 17.83203125 7.04427083333333  17.9231770833333 7.14518229166666  18.10546875 7.255859375  C 18.2877604166667 7.36653645833333  18.3528645833333 7.50651041666667  18.30078125 7.67578125  C 18.26171875 7.77994791666667  18.1575520833333 7.88411458333333  17.98828125 7.98828125  C 17.8190104166667 8.09244791666666  17.71484375 8.17057291666666  17.67578125 8.22265625  C 17.6106770833333 8.32682291666666  17.6009114583333 8.447265625  17.646484375 8.583984375  C 17.6920572916667 8.720703125  17.7604166666667 8.828125  17.8515625 8.90625  C 17.8776041666667 8.93229166666666  17.8873697916667 8.95833333333333  17.880859375 8.984375  C 17.8743489583333 9.01041666666667  17.8515625 9.03971354166667  17.8125 9.072265625  C 17.7734375 9.10481770833333  17.7376302083333 9.130859375  17.705078125 9.150390625  C 17.6725260416667 9.169921875  17.6302083333333 9.19270833333333  17.578125 9.21875  L 17.51953125 9.2578125  C 17.3763020833333 9.32291666666666  17.2428385416667 9.28385416666666  17.119140625 9.140625  C 16.9954427083333 8.99739583333333  16.9075520833333 8.828125  16.85546875 8.6328125  C 16.7643229166667 8.30729166666667  16.66015625 8.11197916666666  16.54296875 8.046875  C 16.2434895833333 7.94270833333333  16.0546875 7.94921875  15.9765625 8.06640625  C 15.9114583333333 7.89713541666667  15.64453125 7.72786458333333  15.17578125 7.55859375  C 14.8502604166667 7.44140625  14.47265625 7.41536458333333  14.04296875 7.48046875  C 14.12109375 7.46744791666666  14.12109375 7.36979166666667  14.04296875 7.1875  C 13.9518229166667 6.9921875  13.828125 6.9140625  13.671875 6.953125  C 13.7109375 6.875  13.7369791666667 6.76106770833333  13.75 6.611328125  C 13.7630208333333 6.46158854166667  13.76953125 6.37369791666667  13.76953125 6.34765625  C 13.80859375 6.17838541666666  13.88671875 6.02864583333333  14.00390625 5.8984375  C 14.0169270833333 5.88541666666666  14.0625 5.830078125  14.140625 5.732421875  C 14.21875 5.634765625  14.2805989583333 5.546875  14.326171875 5.46875  C 14.3717447916667 5.390625  14.375 5.3515625  14.3359375 5.3515625  C 14.7916666666667 5.40364583333333  15.1171875 5.33203125  15.3125 5.13671875  C 15.3776041666667 5.07161458333333  15.4524739583333 4.9609375  15.537109375 4.8046875  C 15.6217447916667 4.6484375  15.6901041666667 4.53776041666666  15.7421875 4.47265625  C 15.859375 4.39453125  15.9505208333333 4.35872395833333  16.015625 4.365234375  C 16.0807291666667 4.37174479166667  16.1751302083333 4.40755208333333  16.298828125 4.47265625  C 16.4225260416667 4.53776041666666  16.5169270833333 4.5703125  16.58203125 4.5703125  C 16.7643229166667 4.58333333333333  16.865234375 4.51171875  16.884765625 4.35546875  C 16.904296875 4.19921875  16.85546875 4.06901041666666  16.73828125 3.96484375  C 16.89453125 3.97786458333333  16.9140625 3.8671875  16.796875 3.6328125  C 16.7447916666667 3.54166666666666  16.6927083333333 3.48307291666666  16.640625 3.45703125  C 16.484375 3.40494791666667  16.30859375 3.4375  16.11328125 3.5546875  C 16.0091145833333 3.60677083333333  16.0221354166667 3.65885416666666  16.15234375 3.7109375  C 16.1393229166667 3.69791666666667  16.0774739583333 3.76627604166667  15.966796875 3.916015625  C 15.8561197916667 4.06575520833333  15.7486979166667 4.1796875  15.64453125 4.2578125  C 15.5403645833333 4.3359375  15.4361979166667 4.30338541666666  15.33203125 4.16015625  C 15.3190104166667 4.14713541666667  15.283203125 4.05924479166667  15.224609375 3.896484375  C 15.166015625 3.73372395833333  15.1041666666667 3.64583333333333  15.0390625 3.6328125  C 14.9348958333333 3.6328125  14.8307291666667 3.73046875  14.7265625 3.92578125  C 14.765625 3.82161458333333  14.6940104166667 3.72395833333333  14.51171875 3.6328125  C 14.3294270833333 3.54166666666666  14.1731770833333 3.48958333333333  14.04296875 3.4765625  C 14.2903645833333 3.3203125  14.23828125 3.14453125  13.88671875 2.94921875  C 13.7955729166667 2.89713541666666  13.662109375 2.86458333333333  13.486328125 2.8515625  C 13.310546875 2.83854166666666  13.18359375 2.86458333333333  13.10546875 2.9296875  C 13.0403645833333 3.02083333333333  13.0045572916667 3.095703125  12.998046875 3.154296875  C 12.9915364583333 3.212890625  13.0240885416667 3.26497395833333  13.095703125 3.310546875  C 13.1673177083333 3.35611979166667  13.2356770833333 3.39192708333333  13.30078125 3.41796875  C 13.3658854166667 3.44401041666667  13.4407552083333 3.47005208333333  13.525390625 3.49609375  C 13.6100260416667 3.52213541666667  13.6653645833333 3.54166666666666  13.69140625 3.5546875  C 13.8736979166667 3.68489583333333  13.92578125 3.77604166666666  13.84765625 3.828125  C 13.8216145833333 3.84114583333333  13.7662760416667 3.86393229166666  13.681640625 3.896484375  C 13.5970052083333 3.92903645833333  13.5221354166667 3.95833333333333  13.45703125 3.984375  C 13.3919270833333 4.01041666666666  13.3528645833333 4.03645833333333  13.33984375 4.0625  C 13.30078125 4.11458333333333  13.30078125 4.20572916666667  13.33984375 4.3359375  C 13.37890625 4.46614583333333  13.3658854166667 4.55729166666667  13.30078125 4.609375  C 13.2356770833333 4.54427083333333  13.1770833333333 4.43033854166667  13.125 4.267578125  C 13.0729166666667 4.10481770833333  13.02734375 3.99739583333333  12.98828125 3.9453125  C 13.0794270833333 4.0625  12.9166666666667 4.1015625  12.5 4.0625  L 12.3046875 4.04296875  C 12.2526041666667 4.04296875  12.1484375 4.05598958333333  11.9921875 4.08203125  C 11.8359375 4.10807291666667  11.7024739583333 4.11458333333333  11.591796875 4.1015625  C 11.4811197916667 4.08854166666667  11.3932291666667 4.03645833333333  11.328125 3.9453125  C 11.2760416666667 3.84114583333333  11.2760416666667 3.7109375  11.328125 3.5546875  C 11.3411458333333 3.50260416666667  11.3671875 3.48958333333333  11.40625 3.515625  C 11.3541666666667 3.4765625  11.2825520833333 3.41471354166667  11.19140625 3.330078125  C 11.1002604166667 3.24544270833333  11.03515625 3.19010416666666  10.99609375 3.1640625  C 10.3971354166667 3.359375  9.78515625 3.62630208333333  9.16015625 3.96484375  C 9.23828125 3.97786458333333  9.31640625 3.97135416666667  9.39453125 3.9453125  C 9.45963541666667 3.91927083333333  9.54427083333334 3.876953125  9.6484375 3.818359375  C 9.75260416666667 3.759765625  9.81770833333333 3.72395833333333  9.84375 3.7109375  C 10.2864583333333 3.52864583333333  10.5598958333333 3.48307291666666  10.6640625 3.57421875  L 10.76171875 3.4765625  C 10.9440104166667 3.68489583333333  11.07421875 3.84765625  11.15234375 3.96484375  C 11.0611979166667 3.91276041666667  10.8658854166667 3.90625  10.56640625 3.9453125  C 10.3059895833333 4.0234375  10.1627604166667 4.1015625  10.13671875 4.1796875  C 10.2278645833333 4.3359375  10.2604166666667 4.453125  10.234375 4.53125  C 10.1822916666667 4.4921875  10.107421875 4.42708333333333  10.009765625 4.3359375  C 9.912109375 4.24479166666666  9.81770833333333 4.17317708333333  9.7265625 4.12109375  C 9.63541666666667 4.06901041666666  9.53776041666667 4.03645833333333  9.43359375 4.0234375  C 9.22526041666667 4.0234375  9.08203125 4.02994791666667  9.00390625 4.04296875  C 7.10286458333333 5.08463541666667  5.57291666666667 6.52994791666666  4.4140625 8.37890625  C 4.50520833333333 8.47005208333333  4.58333333333333 8.52213541666666  4.6484375 8.53515625  C 4.70052083333333 8.54817708333333  4.73307291666667 8.60677083333333  4.74609375 8.7109375  C 4.75911458333333 8.81510416666666  4.775390625 8.88671875  4.794921875 8.92578125  C 4.814453125 8.96484375  4.88932291666667 8.9453125  5.01953125 8.8671875  C 5.13671875 8.97135416666666  5.15625 9.09505208333333  5.078125 9.23828125  C 5.09114583333333 9.22526041666666  5.37760416666667 9.40104166666666  5.9375 9.765625  C 6.18489583333333 9.98697916666666  6.32161458333333 10.1236979166667  6.34765625 10.17578125  C 6.38671875 10.3190104166667  6.32161458333333 10.4361979166667  6.15234375 10.52734375  C 6.13932291666667 10.5013020833333  6.08072916666667 10.4427083333333  5.9765625 10.3515625  C 5.87239583333333 10.2604166666667  5.81380208333333 10.234375  5.80078125 10.2734375  C 5.76171875 10.3385416666667  5.76497395833333 10.458984375  5.810546875 10.634765625  C 5.85611979166667 10.810546875  5.92447916666667 10.8919270833333  6.015625 10.87890625  C 5.92447916666667 10.87890625  5.86263020833333 10.9830729166667  5.830078125 11.19140625  C 5.79752604166667 11.3997395833333  5.78125 11.630859375  5.78125 11.884765625  C 5.78125 12.138671875  5.77473958333333 12.2916666666667  5.76171875 12.34375  L 5.80078125 12.36328125  C 5.76171875 12.51953125  5.79752604166667 12.744140625  5.908203125 13.037109375  C 6.01888020833333 13.330078125  6.15885416666667 13.45703125  6.328125 13.41796875  C 6.15885416666667 13.45703125  6.2890625 13.7369791666667  6.71875 14.2578125  C 6.796875 14.3619791666667  6.84895833333333 14.4205729166667  6.875 14.43359375  C 6.9140625 14.4596354166667  6.9921875 14.5084635416667  7.109375 14.580078125  C 7.2265625 14.6516927083333  7.32421875 14.716796875  7.40234375 14.775390625  C 7.48046875 14.833984375  7.54557291666667 14.90234375  7.59765625 14.98046875  C 7.64973958333333 15.0455729166667  7.71484375 15.1920572916667  7.79296875 15.419921875  C 7.87109375 15.6477864583333  7.96223958333333 15.80078125  8.06640625 15.87890625  C 8.04036458333334 15.95703125  8.10221354166667 16.0872395833333  8.251953125 16.26953125  C 8.40169270833333 16.4518229166667  8.47005208333333 16.6015625  8.45703125 16.71875  C 8.44401041666667 16.71875  8.427734375 16.7252604166667  8.408203125 16.73828125  C 8.388671875 16.7513020833333  8.37239583333334 16.7578125  8.359375 16.7578125  C 8.3984375 16.8489583333333  8.49934895833333 16.9401041666667  8.662109375 17.03125  C 8.82486979166667 17.1223958333333  8.92578125 17.20703125  8.96484375 17.28515625  C 8.97786458333333 17.32421875  8.99088541666667 17.3893229166667  9.00390625 17.48046875  C 9.01692708333334 17.5716145833333  9.03645833333334 17.6432291666667  9.0625 17.6953125  C 9.08854166666667 17.7473958333333  9.140625 17.7604166666667  9.21875 17.734375  C 9.24479166666667 17.4739583333333  9.08854166666667 17.0703125  8.75 16.5234375  C 8.5546875 16.1979166666667  8.44401041666667 16.0091145833333  8.41796875 15.95703125  C 8.37890625 15.8919270833333  8.34309895833333 15.791015625  8.310546875 15.654296875  C 8.27799479166667 15.517578125  8.24869791666667 15.4231770833333  8.22265625 15.37109375  C 8.24869791666667 15.37109375  8.28776041666667 15.380859375  8.33984375 15.400390625  C 8.39192708333333 15.419921875  8.447265625 15.4427083333333  8.505859375 15.46875  C 8.564453125 15.4947916666667  8.61328125 15.5208333333333  8.65234375 15.546875  C 8.69140625 15.5729166666667  8.70442708333333 15.5924479166667  8.69140625 15.60546875  C 8.65234375 15.6966145833333  8.66536458333333 15.810546875  8.73046875 15.947265625  C 8.79557291666667 16.083984375  8.87369791666667 16.2044270833333  8.96484375 16.30859375  C 9.05598958333333 16.4127604166667  9.16666666666667 16.5364583333333  9.296875 16.6796875  C 9.42708333333334 16.8229166666667  9.50520833333334 16.9075520833333  9.53125 16.93359375  C 9.609375 17.01171875  9.70052083333333 17.138671875  9.8046875 17.314453125  C 9.90885416666667 17.490234375  9.90885416666667 17.578125  9.8046875 17.578125  C 9.921875 17.578125  10.0520833333333 17.646484375  10.1953125 17.783203125  C 10.3385416666667 17.919921875  10.44921875 18.046875  10.52734375 18.1640625  C 10.5924479166667 18.2682291666667  10.64453125 18.4375  10.68359375 18.671875  C 10.72265625 18.90625  10.7552083333333 19.0625  10.78125 19.140625  C 10.8072916666667 19.2317708333333  10.8626302083333 19.3196614583333  10.947265625 19.404296875  C 11.0319010416667 19.4889322916667  11.11328125 19.55078125  11.19140625 19.58984375  L 11.50390625 19.74609375  C 11.50390625 19.74609375  11.5885416666667 19.7916666666667  11.7578125 19.8828125  C 11.8229166666667 19.9088541666667  11.943359375 19.9772135416667  12.119140625 20.087890625  C 12.294921875 20.1985677083333  12.4348958333333 20.2734375  12.5390625 20.3125  C 12.6692708333333 20.3645833333333  12.7734375 20.390625  12.8515625 20.390625  C 12.9296875 20.390625  13.0240885416667 20.3743489583333  13.134765625 20.341796875  C 13.2454427083333 20.3092447916667  13.3333333333333 20.2864583333333  13.3984375 20.2734375  C 13.59375 20.2473958333333  13.7825520833333 20.3450520833333  13.96484375 20.56640625  C 14.1471354166667 20.7877604166667  14.2838541666667 20.9244791666667  14.375 20.9765625  C 14.84375 21.2239583333333  15.2018229166667 21.2955729166667  15.44921875 21.19140625  C 15.4231770833333 21.2044270833333  15.4264322916667 21.2532552083333  15.458984375 21.337890625  C 15.4915364583333 21.4225260416667  15.5436197916667 21.5234375  15.615234375 21.640625  C 15.6868489583333 21.7578125  15.7454427083333 21.8522135416667  15.791015625 21.923828125  C 15.8365885416667 21.9954427083333  15.8723958333333 22.05078125  15.8984375 22.08984375  C 15.9635416666667 22.16796875  16.0807291666667 22.265625  16.25 22.3828125  C 16.4192708333333 22.5  16.5364583333333 22.59765625  16.6015625 22.67578125  C 16.6796875 22.6236979166667  16.7252604166667 22.5651041666667  16.73828125 22.5  C 16.69921875 22.6041666666667  16.7447916666667 22.734375  16.875 22.890625  C 17.0052083333333 23.046875  17.1223958333333 23.1119791666667  17.2265625 23.0859375  C 17.4088541666667 23.046875  17.5 22.8385416666667  17.5 22.4609375  C 17.0963541666667 22.65625  16.77734375 22.5390625  16.54296875 22.109375  C 16.54296875 22.0963541666667  16.5266927083333 22.060546875  16.494140625 22.001953125  C 16.4615885416667 21.943359375  16.435546875 21.8880208333333  16.416015625 21.8359375  C 16.396484375 21.7838541666667  16.3802083333333 21.728515625  16.3671875 21.669921875  C 16.3541666666667 21.611328125  16.3541666666667 21.5625  16.3671875 21.5234375  C 16.3802083333333 21.484375  16.4127604166667 21.46484375  16.46484375 21.46484375  C 16.58203125 21.46484375  16.6471354166667 21.4420572916667  16.66015625 21.396484375  C 16.6731770833333 21.3509114583333  16.66015625 21.26953125  16.62109375 21.15234375  C 16.58203125 21.03515625  16.5559895833333 20.9505208333333  16.54296875 20.8984375  C 16.5299479166667 20.7942708333333  16.4583333333333 20.6640625  16.328125 20.5078125  C 16.1979166666667 20.3515625  16.1197916666667 20.25390625  16.09375 20.21484375  C 16.0286458333333 20.33203125  15.9244791666667 20.3841145833333  15.78125 20.37109375  C 15.6380208333333 20.3580729166667  15.5338541666667 20.2994791666667  15.46875 20.1953125  C 15.46875 20.2083333333333  15.458984375 20.244140625  15.439453125 20.302734375  C 15.419921875 20.361328125  15.41015625 20.4036458333333  15.41015625 20.4296875  C 15.2408854166667 20.4296875  15.1432291666667 20.4231770833333  15.1171875 20.41015625  C 15.1302083333333 20.37109375  15.146484375 20.2571614583333  15.166015625 20.068359375  C 15.185546875 19.8795572916667  15.2083333333333 19.7330729166667  15.234375 19.62890625  C 15.2473958333333 19.5768229166667  15.283203125 19.4986979166667  15.341796875 19.39453125  C 15.400390625 19.2903645833333  15.44921875 19.1959635416667  15.48828125 19.111328125  C 15.52734375 19.0266927083333  15.5533854166667 18.9453125  15.56640625 18.8671875  C 15.5794270833333 18.7890625  15.5501302083333 18.7272135416667  15.478515625 18.681640625  C 15.4069010416667 18.6360677083333  15.29296875 18.6197916666667  15.13671875 18.6328125  C 14.8893229166667 18.6458333333333  14.7200520833333 18.7760416666667  14.62890625 19.0234375  C 14.6158854166667 19.0625  14.5963541666667 19.130859375  14.5703125 19.228515625  C 14.5442708333333 19.326171875  14.51171875 19.4010416666667  14.47265625 19.453125  C 14.43359375 19.5052083333333  14.375 19.55078125  14.296875 19.58984375  C 14.2057291666667 19.62890625  14.0494791666667 19.6419270833333  13.828125 19.62890625  C 13.6067708333333 19.6158854166667  13.4505208333333 19.5833333333333  13.359375 19.53125  C 13.1901041666667 19.4270833333333  13.0436197916667 19.23828125  12.919921875 18.96484375  C 12.7962239583333 18.69140625  12.734375 18.4505208333333  12.734375 18.2421875  C 12.734375 18.1119791666667  12.7506510416667 17.939453125  12.783203125 17.724609375  C 12.8157552083333 17.509765625  12.8352864583333 17.3470052083333  12.841796875 17.236328125  C 12.8483072916667 17.1256510416667  12.8125 16.9661458333333  12.734375 16.7578125  C 12.7734375 16.7317708333333  12.83203125 16.669921875  12.91015625 16.572265625  C 12.98828125 16.474609375  13.0533854166667 16.40625  13.10546875 16.3671875  C 13.1315104166667 16.3541666666667  13.1608072916667 16.3444010416667  13.193359375 16.337890625  C 13.2259114583333 16.3313802083333  13.2552083333333 16.3313802083333  13.28125 16.337890625  C 13.3072916666667 16.3444010416667  13.3333333333333 16.3346354166667  13.359375 16.30859375  C 13.3854166666667 16.2825520833333  13.4049479166667 16.2434895833333  13.41796875 16.19140625  C 13.4049479166667 16.1783854166667  13.37890625 16.1588541666667  13.33984375 16.1328125  C 13.30078125 16.09375  13.2747395833333 16.07421875  13.26171875 16.07421875  C 13.3528645833333 16.11328125  13.5384114583333 16.103515625  13.818359375 16.044921875  C 14.0983072916667 15.986328125  14.27734375 15.99609375  14.35546875 16.07421875  C 14.55078125 16.2174479166667  14.6940104166667 16.2044270833333  14.78515625 16.03515625  C 14.78515625 16.0221354166667  14.7688802083333 15.9602864583333  14.736328125 15.849609375  C 14.7037760416667 15.7389322916667  14.7005208333333 15.6510416666667  14.7265625 15.5859375  C 14.7916666666667 15.9375  14.98046875 15.99609375  15.29296875 15.76171875  C 15.33203125 15.80078125  15.4329427083333 15.8333333333333  15.595703125 15.859375  C 15.7584635416667 15.8854166666667  15.8723958333333 15.91796875  15.9375 15.95703125  C 15.9765625 15.9830729166667  16.0221354166667 16.0188802083333  16.07421875 16.064453125  C 16.1263020833333 16.1100260416667  16.162109375 16.1393229166667  16.181640625 16.15234375  C 16.201171875 16.1653645833333  16.2337239583333 16.162109375  16.279296875 16.142578125  C 16.3248697916667 16.123046875  16.3802083333333 16.0807291666667  16.4453125 16.015625  C 16.5755208333333 16.1979166666667  16.6536458333333 16.3541666666667  16.6796875 16.484375  C 16.8229166666667 17.0052083333333  16.9466145833333 17.2916666666667  17.05078125 17.34375  C 17.1419270833333 17.3828125  17.2135416666667 17.3958333333333  17.265625 17.3828125  C 17.3177083333333 17.3697916666667  17.3470052083333 17.3079427083333  17.353515625 17.197265625  C 17.3600260416667 17.0865885416667  17.3600260416667 16.9954427083333  17.353515625 16.923828125  C 17.3470052083333 16.8522135416667  17.3372395833333 16.7708333333333  17.32421875 16.6796875  L 17.3046875 16.5234375  L 17.3046875 16.171875  L 17.28515625 16.015625  C 17.08984375 15.9765625  16.9694010416667 15.8984375  16.923828125 15.78125  C 16.8782552083333 15.6640625  16.8880208333333 15.5436197916667  16.953125 15.419921875  C 17.0182291666667 15.2962239583333  17.1158854166667 15.17578125  17.24609375 15.05859375  C 17.2591145833333 15.0455729166667  17.3111979166667 15.0227864583333  17.40234375 14.990234375  C 17.4934895833333 14.9576822916667  17.5944010416667 14.9153645833333  17.705078125 14.86328125  C 17.8157552083333 14.8111979166667  17.8971354166667 14.7591145833333  17.94921875 14.70703125  C 18.22265625 14.4596354166667  18.3203125 14.2317708333333  18.2421875 14.0234375  C 18.3333333333333 14.0234375  18.4049479166667 13.96484375  18.45703125 13.84765625  C 18.4440104166667 13.84765625  18.4114583333333 13.828125  18.359375 13.7890625  C 18.3072916666667 13.75  18.2584635416667 13.7174479166667  18.212890625 13.69140625  C 18.1673177083333 13.6653645833333  18.1380208333333 13.65234375  18.125 13.65234375  C 18.2421875 13.5872395833333  18.2552083333333 13.4830729166667  18.1640625 13.33984375  C 18.2291666666667 13.30078125  18.2779947916667 13.2291666666667  18.310546875 13.125  C 18.3430989583333 13.0208333333333  18.3919270833333 12.9557291666667  18.45703125 12.9296875  C 18.57421875 13.0859375  18.7109375 13.0989583333333  18.8671875 12.96875  C 18.9713541666667 12.8645833333333  18.9778645833333 12.7604166666667  18.88671875 12.65625  C 18.9518229166667 12.5651041666667  19.0852864583333 12.4967447916667  19.287109375 12.451171875  C 19.4889322916667 12.4055989583333  19.609375 12.34375  19.6484375 12.265625  C 19.7395833333333 12.2916666666667  19.7916666666667 12.2786458333333  19.8046875 12.2265625  C 19.8177083333333 12.1744791666667  19.82421875 12.0963541666667  19.82421875 11.9921875  C 19.82421875 11.8880208333333  19.84375 11.8098958333333  19.8828125 11.7578125  C 19.9348958333333 11.6927083333333  20.0325520833333 11.6341145833333  20.17578125 11.58203125  C 20.3190104166667 11.5299479166667  20.4036458333333 11.4973958333333  20.4296875 11.484375  L 20.76171875 11.26953125  C 20.80078125 11.2174479166667  20.80078125 11.19140625  20.76171875 11.19140625  C 20.99609375 11.2174479166667  21.1979166666667 11.1458333333333  21.3671875 10.9765625  C 21.4973958333333 10.8333333333333  21.4583333333333 10.703125  21.25 10.5859375  C 21.2890625 10.5078125  21.26953125 10.4459635416667  21.19140625 10.400390625  C 21.11328125 10.3548177083333  21.015625 10.3190104166667  20.8984375 10.29296875  C 20.9375 10.2799479166667  21.0123697916667 10.2766927083333  21.123046875 10.283203125  C 21.2337239583333 10.2897135416667  21.3020833333333 10.2799479166667  21.328125 10.25390625  C 21.5234375 10.1236979166667  21.4778645833333 10.01953125  21.19140625 9.94140625  Z M 17.12890625 26.9921875  C 17.12890625 27.0703125  17.1419270833333 27.1744791666667  17.16796875 27.3046875  C 19.8502604166667 26.8359375  22.1354166666667 25.60546875  24.0234375 23.61328125  C 23.984375 23.57421875  23.9029947916667 23.544921875  23.779296875 23.525390625  C 23.6555989583333 23.505859375  23.57421875 23.4830729166667  23.53515625 23.45703125  C 23.30078125 23.3658854166667  23.14453125 23.3138020833333  23.06640625 23.30078125  C 23.0794270833333 23.2096354166667  23.0631510416667 23.125  23.017578125 23.046875  C 22.9720052083333 22.96875  22.919921875 22.91015625  22.861328125 22.87109375  C 22.802734375 22.83203125  22.7213541666667 22.7799479166667  22.6171875 22.71484375  C 22.5130208333333 22.6497395833333  22.44140625 22.6041666666667  22.40234375 22.578125  C 22.3763020833333 22.5520833333333  22.3307291666667 22.5130208333333  22.265625 22.4609375  C 22.2005208333333 22.4088541666667  22.1549479166667 22.373046875  22.12890625 22.353515625  C 22.1028645833333 22.333984375  22.0540364583333 22.3046875  21.982421875 22.265625  C 21.9108072916667 22.2265625  21.85546875 22.2135416666667  21.81640625 22.2265625  C 21.77734375 22.2395833333333  21.7122395833333 22.24609375  21.62109375 22.24609375  L 21.5625 22.265625  C 21.5234375 22.2786458333333  21.4876302083333 22.294921875  21.455078125 22.314453125  C 21.4225260416667 22.333984375  21.38671875 22.353515625  21.34765625 22.373046875  C 21.30859375 22.392578125  21.2825520833333 22.412109375  21.26953125 22.431640625  C 21.2565104166667 22.451171875  21.2565104166667 22.4674479166667  21.26953125 22.48046875  C 20.99609375 22.2591145833333  20.76171875 22.1158854166667  20.56640625 22.05078125  C 20.5013020833333 22.0377604166667  20.4296875 22.001953125  20.3515625 21.943359375  C 20.2734375 21.884765625  20.205078125 21.8391927083333  20.146484375 21.806640625  C 20.087890625 21.7740885416667  20.0227864583333 21.7643229166667  19.951171875 21.77734375  C 19.8795572916667 21.7903645833333  19.8046875 21.8359375  19.7265625 21.9140625  C 19.6614583333333 21.9791666666667  19.6223958333333 22.0768229166667  19.609375 22.20703125  C 19.5963541666667 22.3372395833333  19.5833333333333 22.421875  19.5703125 22.4609375  C 19.4791666666667 22.3958333333333  19.4791666666667 22.2819010416667  19.5703125 22.119140625  C 19.6614583333333 21.9563802083333  19.6744791666667 21.8359375  19.609375 21.7578125  C 19.5703125 21.6796875  19.501953125 21.650390625  19.404296875 21.669921875  C 19.306640625 21.689453125  19.228515625 21.71875  19.169921875 21.7578125  C 19.111328125 21.796875  19.0364583333333 21.8522135416667  18.9453125 21.923828125  C 18.8541666666667 21.9954427083333  18.7955729166667 22.0377604166667  18.76953125 22.05078125  C 18.7434895833333 22.0638020833333  18.6881510416667 22.099609375  18.603515625 22.158203125  C 18.5188802083333 22.216796875  18.4635416666667 22.265625  18.4375 22.3046875  C 18.3984375 22.3567708333333  18.359375 22.4348958333333  18.3203125 22.5390625  C 18.28125 22.6432291666667  18.2486979166667 22.71484375  18.22265625 22.75390625  C 18.1966145833333 22.7018229166667  18.1217447916667 22.6595052083333  17.998046875 22.626953125  C 17.8743489583333 22.5944010416667  17.8125 22.55859375  17.8125 22.51953125  C 17.8385416666667 22.6497395833333  17.8645833333333 22.8776041666667  17.890625 23.203125  C 17.9166666666667 23.5286458333333  17.94921875 23.7760416666667  17.98828125 23.9453125  C 18.0794270833333 24.3489583333333  18.0013020833333 24.6614583333333  17.75390625 24.8828125  C 17.40234375 25.2083333333333  17.2135416666667 25.46875  17.1875 25.6640625  C 17.1354166666667 25.9505208333333  17.2135416666667 26.1197916666667  17.421875 26.171875  C 17.421875 26.2630208333333  17.3697916666667 26.396484375  17.265625 26.572265625  C 17.1614583333333 26.748046875  17.1158854166667 26.8880208333333  17.12890625 26.9921875  Z " fill-rule="nonzero" fill="#409eff" stroke="none" transform="matrix(1 0 0 1 1277 11 )" />
  </g>
</svg>