<?xml version="1.0" encoding="utf-8"?>
<svg version="1.1" xmlns:xlink="http://www.w3.org/1999/xlink" width="46px" height="51px" xmlns="http://www.w3.org/2000/svg">
  <g transform="matrix(1 0 0 1 -281 -113 )">
    <path d="M 32.0396634615385 38.6911272321429  C 32.8137019230769 37.7709263392857  33.2007211538462 36.6183035714286  33.2007211538462 35.2332589285714  C 33.2007211538462 34.1517857142857  33.1500400641026 33.13671875  33.0486778846154 32.1880580357143  C 32.9473157051282 31.2393973214286  32.7538060897436 30.2859933035714  32.4681490384615 29.3278459821429  C 32.1824919871795 28.3696986607143  31.8185096153846 27.5538504464286  31.3762019230769 26.8803013392857  C 30.9338942307692 26.2067522321429  30.3441506410256 25.6565290178571  29.6069711538462 25.2296316964286  C 28.8697916666667 24.802734375  28.03125 24.5892857142857  27.0913461538462 24.5892857142857  C 26.9807692307692 24.6651785714286  26.6720753205128 24.8596540178571  26.1652644230769 25.1727120535714  C 25.658453525641 25.4857700892857  25.2668269230769 25.7181919642857  24.9903846153846 25.8699776785714  C 24.7139423076923 26.0217633928571  24.3407451923077 26.2114955357143  23.8707932692308 26.4391741071429  C 23.4008413461538 26.6668526785714  22.9493189102564 26.828125  22.5162259615385 26.9229910714286  C 22.0831330128205 27.0178571428571  21.6546474358974 27.0652901785714  21.2307692307692 27.0652901785714  C 20.806891025641 27.0652901785714  20.378405448718 27.0178571428571  19.9453125 26.9229910714286  C 19.5122195512821 26.828125  19.0606971153846 26.6668526785714  18.5907451923077 26.4391741071429  C 18.1207932692308 26.2114955357143  17.7475961538462 26.0217633928571  17.4711538461538 25.8699776785714  C 17.1947115384615 25.7181919642857  16.8030849358974 25.4857700892857  16.2962740384615 25.1727120535714  C 15.7894631410256 24.8596540178571  15.4807692307692 24.6651785714286  15.3701923076923 24.5892857142857  C 14.4302884615385 24.5892857142857  13.5917467948718 24.802734375  12.8545673076923 25.2296316964286  C 12.1173878205128 25.6565290178571  11.5276442307692 26.2067522321429  11.0853365384615 26.8803013392857  C 10.6430288461538 27.5538504464286  10.279046474359 28.3696986607143  9.99338942307692 29.3278459821429  C 9.70773237179487 30.2859933035714  9.51422275641026 31.2393973214286  9.41286057692308 32.1880580357143  C 9.3114983974359 33.13671875  9.26081730769231 34.1517857142857  9.26081730769231 35.2332589285714  C 9.26081730769231 36.6183035714286  9.64783653846154 37.7709263392857  10.421875 38.6911272321429  C 11.1959134615385 39.611328125  12.1450320512821 40.0714285714286  13.2692307692308 40  L 29.1923076923077 40  C 30.3165064102564 40.0714285714286  31.265625 39.611328125  32.0396634615385 38.6911272321429  Z M 26.3034855769231 23.5362723214286  C 27.7133413461538 22.0943080357143  28.4182692307692 20.3582589285714  28.4182692307692 18.328125  C 28.4182692307692 16.2790178571429  27.7133413461538 14.5334821428571  26.3034855769231 13.0915178571429  C 24.8936298076923 11.6495535714286  23.2027243589744 10.9285714285714  21.2307692307692 10.9285714285714  C 19.2588141025641 10.9285714285714  17.5679086538462 11.6495535714286  16.1580528846154 13.0915178571429  C 14.7481971153846 14.5334821428571  14.0432692307692 16.2790178571429  14.0432692307692 18.328125  C 14.0432692307692 20.3582589285714  14.7481971153846 22.0943080357143  16.1580528846154 23.5362723214286  C 17.5679086538462 24.9782366071429  19.2588141025641 25.69921875  21.2307692307692 25.69921875  C 23.2027243589744 25.69921875  24.8936298076923 24.9782366071429  26.3034855769231 23.5362723214286  Z M 45.7512019230769 33.0418526785714  C 45.9170673076923 33.2126116071429  46 33.4308035714286  46 33.6964285714286  L 46 39.1607142857143  C 46 39.4263392857143  45.9170673076923 39.64453125  45.7512019230769 39.8152901785714  C 45.5853365384615 39.9860491071429  45.3733974358974 40.0714285714286  45.1153846153846 40.0714285714286  L 42.4615384615385 40.0714285714286  L 42.4615384615385 46.4464285714286  C 42.4615384615385 47.6986607142857  42.0284455128205 48.7706473214286  41.1622596153846 49.6623883928571  C 40.2960737179487 50.5541294642857  39.2548076923077 51  38.0384615384615 51  L 4.42307692307692 51  C 3.20673076923077 51  2.16546474358974 50.5541294642857  1.29927884615385 49.6623883928571  C 0.433092948717949 48.7706473214286  0 47.6986607142857  0 46.4464285714286  L 0 4.55357142857143  C 0 3.30133928571429  0.433092948717949 2.22935267857143  1.29927884615385 1.33761160714286  C 2.16546474358974 0.445870535714286  3.20673076923077 0  4.42307692307692 0  L 38.0384615384615 0  C 39.2548076923077 0  40.2960737179487 0.445870535714286  41.1622596153846 1.33761160714286  C 42.0284455128205 2.22935267857143  42.4615384615385 3.30133928571429  42.4615384615385 4.55357142857143  L 42.4615384615385 10.9285714285714  L 45.1153846153846 10.9285714285714  C 45.3733974358974 10.9285714285714  45.5853365384615 11.0139508928571  45.7512019230769 11.1847098214286  C 45.9170673076923 11.35546875  46 11.5736607142857  46 11.8392857142857  L 46 17.3035714285714  C 46 17.5691964285714  45.9170673076923 17.7873883928571  45.7512019230769 17.9581473214286  C 45.5853365384615 18.12890625  45.3733974358974 18.2142857142857  45.1153846153846 18.2142857142857  L 42.4615384615385 18.2142857142857  L 42.4615384615385 21.8571428571429  L 45.1153846153846 21.8571428571429  C 45.3733974358974 21.8571428571429  45.5853365384615 21.9425223214286  45.7512019230769 22.11328125  C 45.9170673076923 22.2840401785714  46 22.5022321428571  46 22.7678571428571  L 46 28.2321428571429  C 46 28.4977678571429  45.9170673076923 28.7159598214286  45.7512019230769 28.88671875  C 45.5853365384615 29.0574776785714  45.3733974358974 29.1428571428571  45.1153846153846 29.1428571428571  L 42.4615384615385 29.1428571428571  L 42.4615384615385 32.7857142857143  L 45.1153846153846 32.7857142857143  C 45.3733974358974 32.7857142857143  45.5853365384615 32.87109375  45.7512019230769 33.0418526785714  Z " fill-rule="nonzero" fill="#409eff" stroke="none" transform="matrix(1 0 0 1 281 113 )" />
  </g>
</svg>