<?xml version="1.0" encoding="utf-8"?>
<svg version="1.1" xmlns:xlink="http://www.w3.org/1999/xlink" width="23px" height="28px" xmlns="http://www.w3.org/2000/svg">
  <g transform="matrix(1 0 0 1 -283 -12 )">
    <path d="M 22.847265625 20.2434895833333  C 22.9490885416667 21.1610243055556  23 22.1362847222222  23 23.1692708333333  C 23 24.4939236111111  22.6256510416667 25.6302083333333  21.876953125 26.578125  C 21.1282552083333 27.5260416666667  20.2268229166667 28  19.17265625 28  L 3.82734375 28  C 2.77317708333333 28  1.87174479166667 27.5260416666667  1.123046875 26.578125  C 0.374348958333333 25.6302083333333  0 24.4939236111111  0 23.1692708333333  C 0 22.1362847222222  0.0509114583333335 21.1610243055556  0.152734375 20.2434895833333  C 0.254557291666667 19.3259548611111  0.443229166666667 18.40234375  0.71875 17.47265625  C 0.994270833333334 16.54296875  1.34466145833333 15.7469618055556  1.769921875 15.0846354166667  C 2.19518229166667 14.4223090277778  2.758203125 13.8815104166667  3.458984375 13.4622395833333  C 4.159765625 13.04296875  4.96536458333333 12.8333333333333  5.87578125 12.8333333333333  C 7.44505208333333 14.3888888888889  9.31979166666667 15.1666666666667  11.5 15.1666666666667  C 13.6802083333333 15.1666666666667  15.5549479166667 14.3888888888889  17.12421875 12.8333333333333  C 18.0346354166667 12.8333333333333  18.840234375 13.04296875  19.541015625 13.4622395833333  C 20.241796875 13.8815104166667  20.8048177083333 14.4223090277778  21.230078125 15.0846354166667  C 21.6553385416667 15.7469618055556  22.0057291666667 16.54296875  22.28125 17.47265625  C 22.5567708333333 18.40234375  22.7454427083333 19.3259548611111  22.847265625 20.2434895833333  Z M 16.378515625 2.05078125  C 17.726171875 3.41796875  18.4 5.06770833333333  18.4 7  C 18.4 8.93229166666667  17.726171875 10.58203125  16.378515625 11.94921875  C 15.030859375 13.31640625  13.4046875 14  11.5 14  C 9.5953125 14  7.969140625 13.31640625  6.621484375 11.94921875  C 5.273828125 10.58203125  4.6 8.93229166666667  4.6 7  C 4.6 5.06770833333333  5.273828125 3.41796875  6.621484375 2.05078125  C 7.969140625 0.68359375  9.5953125 0  11.5 0  C 13.4046875 0  15.030859375 0.68359375  16.378515625 2.05078125  Z " fill-rule="nonzero" fill="#409eff" stroke="none" transform="matrix(1 0 0 1 283 12 )" />
  </g>
</svg>